<svg xmlns="http://www.w3.org/2000/svg" width="960" height="600" viewBox="0 0 960 600"><rect width="960" height="600" fill="#2E2E2E"/><path d="M0 420c170-100 310-120 470-60 190 72 300 58 490-70v310H0z" fill="#1A1A1A"/><path d="M90 455c210-60 380-24 520 58 110 64 220 70 350 22v65H0v-95z" fill="#FFC107"/><g transform="translate(135 250) scale(.75)"><rect x="42" y="258" width="430" height="58" rx="25" fill="#111"/><rect x="138" y="132" width="210" height="120" rx="18" fill="#FFC107"/><path d="M320 154L534 22l26 44-190 142z" fill="#FFB300"/><path d="M542 46l78 120h-70l-44-68z" fill="#1A1A1A"/></g></svg>
